<?xml version="1.0" encoding="utf-8"?>
<!-- Generator: Adobe Illustrator 24.0.1, SVG Export Plug-In . SVG Version: 6.00 Build 0)  -->
<svg version="1.1" id="Layer_1" xmlns="http://www.w3.org/2000/svg" xmlns:xlink="http://www.w3.org/1999/xlink" x="0px" y="0px"
	 viewBox="0 0 76.7 30" style="enable-background:new 0 0 76.7 30;" xml:space="preserve">
<style type="text/css">
	.st0{fill:#FFFFFF;stroke:#292929;stroke-miterlimit:10;}
</style>
<g>
	<path class="st0" d="M26.8,2.5l-11.3,25H8.3l-4.9-25h7.7l2.8,16.2c0.2-0.5,1-2.4,2.4-5.7l4.5-10.4C20.7,2.5,26.8,2.5,26.8,2.5z"/>
	<path class="st0" d="M50.3,2.5l-4.2,25h-5.6l-4.8-9.6c-1.3-2.6-2.1-4.7-2.5-6.2c0,0.4,0,0.7,0,0.9c0,0.7-0.1,1.6-0.3,2.7l-2.1,12.3
		h-6.1l4.2-25h6.8l2.8,5.8c1.9,4,3.1,7,3.7,8.9c0-0.5-0.1-0.9-0.1-1.1c0-0.7,0.2-2.1,0.5-4.1l1.6-9.5C44.3,2.5,50.3,2.5,50.3,2.5z"
		/>
	<path class="st0" d="M73.2,8.3l-6.4,1.6c-0.2-0.7-0.6-1.3-1.4-1.8c-0.7-0.4-1.5-0.6-2.4-0.6c-1.6,0-2.5,0.5-2.5,1.6
		c0,0.4,0.1,0.7,0.3,0.9s0.9,0.6,2,1l4,1.4c1,0.4,2,0.9,2.9,1.6c0.9,0.7,1.5,1.5,1.9,2.3c0.4,0.9,0.6,1.8,0.6,2.7c0,2.5-1,4.6-3,6.3
		c-2,1.6-4.6,2.5-8,2.5c-2.8,0-5.3-0.6-7.4-1.7c-2.1-1.2-3.6-2.9-4.4-5.3l7.2-1.4c0.6,1.8,2.2,2.7,4.6,2.7c1,0,1.8-0.2,2.2-0.6
		c0.5-0.4,0.7-0.8,0.7-1.3c0-0.3-0.1-0.6-0.3-0.8c-0.2-0.2-0.4-0.4-0.6-0.5c-0.2-0.1-1.2-0.5-2.8-1.1c-2.3-0.8-3.9-1.5-4.8-2
		c-0.9-0.5-1.7-1.2-2.3-2.2c-0.6-1-0.9-2.1-0.9-3.5c0-2.3,0.8-4.2,2.5-5.8c1.7-1.6,4.2-2.4,7.7-2.4c2.6,0,4.9,0.6,6.8,1.7
		C71.4,4.9,72.6,6.4,73.2,8.3z"/>
</g>
</svg>
